<svg xmlns="http://www.w3.org/2000/svg" xmlns:xlink="http://www.w3.org/1999/xlink" contentStyleType="text/css" height="572px" preserveAspectRatio="none" style="width:486px;height:572px;background:#FFFFFF;" version="1.1" viewBox="0 0 486 572" width="486px" zoomAndPan="magnify"><defs/><g><!--class Libro--><g id="elem_Libro"><rect codeLine="3" fill="#F1F1F1" height="145.7813" id="Libro" rx="2.5" ry="2.5" style="stroke:#181818;stroke-width:0.5;" width="158.7197" x="151.5" y="420"/><ellipse cx="209.1611" cy="436" fill="#ADD1B2" rx="11" ry="11" style="stroke:#181818;stroke-width:1;"/><path d="M212.1299,441.6406 Q211.5518,441.9375 210.9111,442.0781 Q210.2705,442.2344 209.5674,442.2344 Q207.0674,442.2344 205.7393,440.5938 Q204.4268,438.9375 204.4268,435.8125 Q204.4268,432.6875 205.7393,431.0313 Q207.0674,429.375 209.5674,429.375 Q210.2705,429.375 210.9111,429.5313 Q211.5674,429.6875 212.1299,429.9844 L212.1299,432.7031 Q211.5049,432.125 210.9111,431.8594 Q210.3174,431.5781 209.6924,431.5781 Q208.3486,431.5781 207.6611,432.6563 Q206.9736,433.7188 206.9736,435.8125 Q206.9736,437.9063 207.6611,438.9844 Q208.3486,440.0469 209.6924,440.0469 Q210.3174,440.0469 210.9111,439.7813 Q211.5049,439.5 212.1299,438.9219 L212.1299,441.6406 Z " fill="#000000"/><text fill="#000000" font-family="sans-serif" font-size="14" lengthAdjust="spacing" textLength="34.8975" x="229.6611" y="440.8467">Libro</text><line style="stroke:#181818;stroke-width:0.5;" x1="152.5" x2="309.2197" y1="452" y2="452"/><rect fill="none" height="6" style="stroke:#C82930;stroke-width:1;" width="6" x="159.5" y="462.6484"/><text fill="#000000" font-family="sans-serif" font-size="14" lengthAdjust="spacing" textLength="87.1445" x="171.5" y="468.9951">titulo: String</text><rect fill="none" height="6" style="stroke:#C82930;stroke-width:1;" width="6" x="159.5" y="478.9453"/><text fill="#000000" font-family="sans-serif" font-size="14" lengthAdjust="spacing" textLength="88.2109" x="171.5" y="485.292">autor: String</text><rect fill="none" height="6" style="stroke:#C82930;stroke-width:1;" width="6" x="159.5" y="495.2422"/><text fill="#000000" font-family="sans-serif" font-size="14" lengthAdjust="spacing" textLength="132.7197" x="171.5" y="501.5889">a&#241;oPublicacion: int</text><rect fill="none" height="6" style="stroke:#C82930;stroke-width:1;" width="6" x="159.5" y="511.5391"/><text fill="#000000" font-family="sans-serif" font-size="14" lengthAdjust="spacing" textLength="98.376" x="171.5" y="517.8857">estado: String</text><line style="stroke:#181818;stroke-width:0.5;" x1="152.5" x2="309.2197" y1="525.1875" y2="525.1875"/><ellipse cx="162.5" cy="538.8359" fill="#84BE84" rx="3" ry="3" style="stroke:#038048;stroke-width:1;"/><text fill="#000000" font-family="sans-serif" font-size="14" lengthAdjust="spacing" textLength="100.0918" x="171.5" y="542.1826">prestar(): void</text><ellipse cx="162.5" cy="555.1328" fill="#84BE84" rx="3" ry="3" style="stroke:#038048;stroke-width:1;"/><text fill="#000000" font-family="sans-serif" font-size="14" lengthAdjust="spacing" textLength="110.6123" x="171.5" y="558.4795">devolver(): void</text></g><!--class Usuario--><g id="elem_Usuario"><rect codeLine="13" fill="#F1F1F1" height="113.1875" id="Usuario" rx="2.5" ry="2.5" style="stroke:#181818;stroke-width:0.5;" width="254.4229" x="225" y="230"/><ellipse cx="321.3594" cy="246" fill="#ADD1B2" rx="11" ry="11" style="stroke:#181818;stroke-width:1;"/><path d="M324.3281,251.6406 Q323.75,251.9375 323.1094,252.0781 Q322.4688,252.2344 321.7656,252.2344 Q319.2656,252.2344 317.9375,250.5938 Q316.625,248.9375 316.625,245.8125 Q316.625,242.6875 317.9375,241.0313 Q319.2656,239.375 321.7656,239.375 Q322.4688,239.375 323.1094,239.5313 Q323.7656,239.6875 324.3281,239.9844 L324.3281,242.7031 Q323.7031,242.125 323.1094,241.8594 Q322.5156,241.5781 321.8906,241.5781 Q320.5469,241.5781 319.8594,242.6563 Q319.1719,243.7188 319.1719,245.8125 Q319.1719,247.9063 319.8594,248.9844 Q320.5469,250.0469 321.8906,250.0469 Q322.5156,250.0469 323.1094,249.7813 Q323.7031,249.5 324.3281,248.9219 L324.3281,251.6406 Z " fill="#000000"/><text fill="#000000" font-family="sans-serif" font-size="14" lengthAdjust="spacing" textLength="53.2041" x="341.8594" y="250.8467">Usuario</text><line style="stroke:#181818;stroke-width:0.5;" x1="226" x2="478.4229" y1="262" y2="262"/><rect fill="none" height="6" style="stroke:#C82930;stroke-width:1;" width="6" x="233" y="272.6484"/><text fill="#000000" font-family="sans-serif" font-size="14" lengthAdjust="spacing" textLength="105.2803" x="245" y="278.9951">nombre: String</text><rect fill="none" height="6" style="stroke:#C82930;stroke-width:1;" width="6" x="233" y="288.9453"/><text fill="#000000" font-family="sans-serif" font-size="14" lengthAdjust="spacing" textLength="199.2676" x="245" y="295.292">numeroIdentificacion: String</text><line style="stroke:#181818;stroke-width:0.5;" x1="226" x2="478.4229" y1="302.5938" y2="302.5938"/><ellipse cx="236" cy="316.2422" fill="#84BE84" rx="3" ry="3" style="stroke:#038048;stroke-width:1;"/><text fill="#000000" font-family="sans-serif" font-size="14" lengthAdjust="spacing" textLength="228.4229" x="245" y="319.5889">tomarPrestado(libro: Libro): void</text><ellipse cx="236" cy="332.5391" fill="#84BE84" rx="3" ry="3" style="stroke:#038048;stroke-width:1;"/><text fill="#000000" font-family="sans-serif" font-size="14" lengthAdjust="spacing" textLength="220.5615" x="245" y="335.8857">devolverLibro(libro: Libro): void</text></g><!--class Biblioteca--><g id="elem_Biblioteca"><rect codeLine="21" fill="#F1F1F1" height="162.0781" id="Biblioteca" rx="2.5" ry="2.5" style="stroke:#181818;stroke-width:0.5;" width="369.6631" x="7" y="7"/><ellipse cx="153.0293" cy="23" fill="#ADD1B2" rx="11" ry="11" style="stroke:#181818;stroke-width:1;"/><path d="M155.998,28.6406 Q155.4199,28.9375 154.7793,29.0781 Q154.1387,29.2344 153.4355,29.2344 Q150.9355,29.2344 149.6074,27.5938 Q148.2949,25.9375 148.2949,22.8125 Q148.2949,19.6875 149.6074,18.0313 Q150.9355,16.375 153.4355,16.375 Q154.1387,16.375 154.7793,16.5313 Q155.4355,16.6875 155.998,16.9844 L155.998,19.7031 Q155.373,19.125 154.7793,18.8594 Q154.1855,18.5781 153.5605,18.5781 Q152.2168,18.5781 151.5293,19.6563 Q150.8418,20.7188 150.8418,22.8125 Q150.8418,24.9063 151.5293,25.9844 Q152.2168,27.0469 153.5605,27.0469 Q154.1855,27.0469 154.7793,26.7813 Q155.373,26.5 155.998,25.9219 L155.998,28.6406 Z " fill="#000000"/><text fill="#000000" font-family="sans-serif" font-size="14" lengthAdjust="spacing" textLength="69.1045" x="173.5293" y="27.8467">Biblioteca</text><line style="stroke:#181818;stroke-width:0.5;" x1="8" x2="375.6631" y1="39" y2="39"/><rect fill="none" height="6" style="stroke:#C82930;stroke-width:1;" width="6" x="15" y="49.6484"/><text fill="#000000" font-family="sans-serif" font-size="14" lengthAdjust="spacing" textLength="163.3311" x="27" y="55.9951">listaLibros: List&lt;Libro&gt;</text><rect fill="none" height="6" style="stroke:#C82930;stroke-width:1;" width="6" x="15" y="65.9453"/><text fill="#000000" font-family="sans-serif" font-size="14" lengthAdjust="spacing" textLength="199.9443" x="27" y="72.292">listaUsuarios: List&lt;Usuario&gt;</text><line style="stroke:#181818;stroke-width:0.5;" x1="8" x2="375.6631" y1="79.5938" y2="79.5938"/><ellipse cx="18" cy="93.2422" fill="#84BE84" rx="3" ry="3" style="stroke:#038048;stroke-width:1;"/><text fill="#000000" font-family="sans-serif" font-size="14" lengthAdjust="spacing" textLength="219.6865" x="27" y="96.5889">registrarLibro(libro: Libro): void</text><ellipse cx="18" cy="109.5391" fill="#84BE84" rx="3" ry="3" style="stroke:#038048;stroke-width:1;"/><text fill="#000000" font-family="sans-serif" font-size="14" lengthAdjust="spacing" textLength="277.1426" x="27" y="112.8857">registrarUsuario(usuario: Usuario): void</text><ellipse cx="18" cy="125.8359" fill="#84BE84" rx="3" ry="3" style="stroke:#038048;stroke-width:1;"/><text fill="#000000" font-family="sans-serif" font-size="14" lengthAdjust="spacing" textLength="333.1426" x="27" y="129.1826">prestarLibro(libro: Libro, usuario: Usuario): void</text><ellipse cx="18" cy="142.1328" fill="#84BE84" rx="3" ry="3" style="stroke:#038048;stroke-width:1;"/><text fill="#000000" font-family="sans-serif" font-size="14" lengthAdjust="spacing" textLength="343.6631" x="27" y="145.4795">devolverLibro(libro: Libro, usuario: Usuario): void</text><ellipse cx="18" cy="158.4297" fill="#84BE84" rx="3" ry="3" style="stroke:#038048;stroke-width:1;"/><text fill="#000000" font-family="sans-serif" font-size="14" lengthAdjust="spacing" textLength="227.8486" x="27" y="161.7764">mostrarLibrosDisponibles(): void</text></g><!--link Biblioteca to Libro--><g id="link_Biblioteca_Libro"><path codeLine="35" d="M195.2,169.24 C197.65,219.3 201.71,285.02 208,343 C210.72,368.11 214.66,395.46 218.51,419.8 " fill="none" id="Biblioteca-Libro" style="stroke:#181818;stroke-width:1;"/><text fill="#000000" font-family="sans-serif" font-size="13" lengthAdjust="spacing" textLength="8.271" x="187.1558" y="189.2127">1</text><text fill="#000000" font-family="sans-serif" font-size="13" lengthAdjust="spacing" textLength="6.5" x="211.0236" y="408.9403">*</text></g><!--link Biblioteca to Usuario--><g id="link_Biblioteca_Usuario"><path codeLine="36" d="M257.31,169.21 C273.9,189.58 291.36,211.03 306.71,229.88 " fill="none" id="Biblioteca-Usuario" style="stroke:#181818;stroke-width:1;"/><text fill="#000000" font-family="sans-serif" font-size="13" lengthAdjust="spacing" textLength="8.271" x="254.7975" y="189.1801">1</text><text fill="#000000" font-family="sans-serif" font-size="13" lengthAdjust="spacing" textLength="6.5" x="294.8294" y="219.1289">*</text></g><!--link Usuario to Libro--><g id="link_Usuario_Libro"><path codeLine="37" d="M319.1,343.11 C305.1,366.77 288.6,394.66 273.68,419.87 " fill="none" id="Usuario-Libro" style="stroke:#181818;stroke-width:1;"/><text fill="#000000" font-family="sans-serif" font-size="13" lengthAdjust="spacing" textLength="99.5439" x="299" y="386.0669">librosPrestados</text><text fill="#000000" font-family="sans-serif" font-size="13" lengthAdjust="spacing" textLength="8.271" x="306.3625" y="363.3875">1</text><text fill="#000000" font-family="sans-serif" font-size="13" lengthAdjust="spacing" textLength="6.5" x="271.6244" y="409.0172">*</text></g><!--SRC=[XP9BReCm48RtFiM8JUY3HRUeZTIcMKIAsgXH3s30ZKOo7kG7cwg7wXbwiHemX92N5-2PVsRypTWpU6eNB2Gtma2bKULOSUdtdS9OxYK3QymqmJS3lnAmQ9sa5BRM9-o2apjBUkhx-wMDooJcF4TIAQ2oGHB6ykAmHlkvynIDfkER56h28dWBKPEinTxzqxDz6iSrxkaKbPaM4nBbIg5fLGXbyMl0EJxSKidrHdTqiMpQJhlkJ-EqqicuWUy5_G38YfmFY19z_JRQD5d6FhR6V2o7jlg0OCx7i5hilAJv1Of9OAWIk-wVziCx30ytS5pr7Yuddf_AjSoIzesOLpGLAJysOSRNFKkQzR5SFozMxs_BRMCnnaRpZHuYI1A8RgFkr3DQ863zovccGGejk-aVWla7]--></g></svg>